<svg xmlns="http://www.w3.org/2000/svg" width="400" height="510" viewBox="0 0 400 510" data-palette="56e66e-6ae7c1-bbf6ac-5c6ec5f946c0" role="img" aria-labelledby="hero-mobile-dark-title hero-mobile-dark-desc"><title id="hero-mobile-dark-title">tokenctl</title><desc id="hero-mobile-dark-desc">Put model traffic under explicit budgets.</desc><defs><linearGradient id="brand" gradientUnits="userSpaceOnUse" x2="400" y2="510"><stop stop-color="#56e66e"/><stop offset=".6" stop-color="#6ae7c1"/><stop offset="1" stop-color="#bbf6ac"/></linearGradient><radialGradient id="halo"><stop stop-color="#56e66e" stop-opacity=".22"/><stop offset="1" stop-color="#050c0e" stop-opacity="0"/></radialGradient><filter id="glow"><feGaussianBlur stdDeviation="5"/></filter><pattern id="grid" width="40" height="40" patternUnits="userSpaceOnUse"><path d="M40 0H0V40" fill="none" stroke="#173c23" stroke-opacity=".35" stroke-width=".6"/></pattern><marker id="arrow" viewBox="0 0 10 10" refX="8" refY="5" markerWidth="5" markerHeight="5" orient="auto"><path d="m1 1 7 4-7 4" fill="none" stroke="#56e66e" stroke-width="1.5"/></marker></defs><style>text{font-family:Arial,"Noto Sans",sans-serif}.flow{stroke-dasharray:10 110;animation:flow 6s linear infinite}.pulse{animation:pulse 5s ease-in-out infinite}.turn{transform-box:fill-box;transform-origin:center;animation:turn 36s linear infinite}@keyframes flow{to{stroke-dashoffset:-360}}@keyframes pulse{0%,100%{opacity:.45}50%{opacity:1}}@keyframes turn{to{transform:rotate(360deg)}}@media(prefers-reduced-motion:reduce){*{animation:none!important;transform:none!important}.flow{display:none}}</style><rect width="400" height="510" rx="16" fill="#050c0e"/><rect width="400" height="510" rx="16" fill="url(#grid)"/><ellipse cx="252.0" cy="219.29999999999998" rx="200.0" ry="357.0" fill="url(#halo)"/><circle cx="340.54" cy="453.33" r="0.98" fill="#6ae7c1" opacity="0.30"/><circle cx="305.66" cy="430.15" r="1.04" fill="#56e66e" opacity="0.43"/><circle cx="390.18" cy="271.00" r="0.80" fill="#56e66e" opacity="0.79"/><circle cx="245.70" cy="224.73" r="1.03" fill="#6ae7c1" opacity="0.28"/><circle cx="340.10" cy="435.27" r="1.27" fill="#56e66e" opacity="0.58"/><circle cx="413.44" cy="292.89" r="0.74" fill="#56e66e" opacity="0.79"/><circle cx="75.21" cy="329.69" r="1.43" fill="#6ae7c1" opacity="0.24"/><circle cx="285.53" cy="228.10" r="1.35" fill="#56e66e" opacity="0.49"/><circle cx="180.00" cy="273.14" r="1.47" fill="#56e66e" opacity="0.44"/><circle cx="86.72" cy="299.55" r="1.37" fill="#6ae7c1" opacity="0.37"/><circle cx="233.76" cy="345.24" r="1.42" fill="#56e66e" opacity="0.59"/><circle cx="383.76" cy="435.94" r="1.63" fill="#56e66e" opacity="0.45"/><circle cx="128.77" cy="328.95" r="1.40" fill="#6ae7c1" opacity="0.63"/><circle cx="339.96" cy="255.68" r="1.54" fill="#56e66e" opacity="0.56"/><circle cx="429.87" cy="319.93" r="1.18" fill="#56e66e" opacity="0.67"/><circle cx="196.70" cy="494.66" r="0.73" fill="#6ae7c1" opacity="0.63"/><circle cx="255.06" cy="458.21" r="0.78" fill="#56e66e" opacity="0.56"/><circle cx="345.33" cy="392.43" r="0.67" fill="#56e66e" opacity="0.57"/><circle cx="239.71" cy="386.36" r="1.02" fill="#6ae7c1" opacity="0.38"/><circle cx="113.60" cy="421.34" r="1.32" fill="#56e66e" opacity="0.57"/><circle cx="331.33" cy="237.48" r="0.68" fill="#56e66e" opacity="0.33"/><circle cx="384.24" cy="409.47" r="1.19" fill="#6ae7c1" opacity="0.49"/><circle cx="247.11" cy="308.85" r="1.00" fill="#56e66e" opacity="0.76"/><circle cx="140.74" cy="276.11" r="1.37" fill="#56e66e" opacity="0.74"/><circle cx="157.00" cy="371.05" r="1.21" fill="#6ae7c1" opacity="0.37"/><circle cx="206.33" cy="345.41" r="1.09" fill="#56e66e" opacity="0.65"/><circle cx="287.26" cy="242.40" r="0.66" fill="#56e66e" opacity="0.45"/><circle cx="117.15" cy="401.28" r="0.71" fill="#6ae7c1" opacity="0.65"/><circle cx="193.81" cy="237.12" r="1.65" fill="#56e66e" opacity="0.43"/><circle cx="63.50" cy="338.08" r="0.86" fill="#56e66e" opacity="0.63"/><circle cx="331.76" cy="314.37" r="1.60" fill="#6ae7c1" opacity="0.63"/><circle cx="228.07" cy="451.97" r="1.68" fill="#56e66e" opacity="0.78"/><circle cx="337.90" cy="436.09" r="0.62" fill="#56e66e" opacity="0.52"/><circle cx="413.29" cy="290.47" r="1.16" fill="#6ae7c1" opacity="0.57"/><circle cx="326.40" cy="375.68" r="0.86" fill="#56e66e" opacity="0.24"/><circle cx="374.28" cy="461.34" r="0.96" fill="#56e66e" opacity="0.73"/><circle cx="109.87" cy="270.75" r="0.75" fill="#6ae7c1" opacity="0.23"/><circle cx="288.23" cy="257.81" r="1.09" fill="#56e66e" opacity="0.47"/><circle cx="377.36" cy="449.97" r="0.73" fill="#56e66e" opacity="0.80"/><circle cx="73.25" cy="318.35" r="1.58" fill="#6ae7c1" opacity="0.23"/><circle cx="249.21" cy="263.25" r="1.10" fill="#56e66e" opacity="0.74"/><circle cx="354.46" cy="332.59" r="0.76" fill="#56e66e" opacity="0.48"/><circle cx="220.80" cy="500.33" r="0.99" fill="#6ae7c1" opacity="0.49"/><circle cx="152.60" cy="333.45" r="1.21" fill="#56e66e" opacity="0.56"/><circle cx="293.31" cy="497.25" r="0.78" fill="#56e66e" opacity="0.62"/><circle cx="344.38" cy="249.02" r="1.05" fill="#6ae7c1" opacity="0.66"/><circle cx="205.62" cy="444.79" r="1.69" fill="#56e66e" opacity="0.51"/><circle cx="292.40" cy="445.56" r="0.92" fill="#56e66e" opacity="0.36"/><circle cx="386.46" cy="358.30" r="0.93" fill="#6ae7c1" opacity="0.35"/><circle cx="216.40" cy="478.40" r="0.89" fill="#56e66e" opacity="0.78"/><circle cx="317.91" cy="296.84" r="0.71" fill="#56e66e" opacity="0.40"/><circle cx="170.64" cy="284.77" r="1.18" fill="#6ae7c1" opacity="0.53"/><circle cx="347.86" cy="476.97" r="1.27" fill="#56e66e" opacity="0.68"/><circle cx="108.65" cy="404.64" r="1.34" fill="#56e66e" opacity="0.54"/><circle cx="399.35" cy="334.41" r="0.93" fill="#6ae7c1" opacity="0.62"/><circle cx="350.46" cy="244.02" r="0.95" fill="#56e66e" opacity="0.34"/><circle cx="372.91" cy="273.61" r="0.95" fill="#56e66e" opacity="0.75"/><circle cx="413.36" cy="293.47" r="1.61" fill="#6ae7c1" opacity="0.64"/><circle cx="341.78" cy="242.74" r="1.09" fill="#56e66e" opacity="0.26"/><circle cx="200.19" cy="437.06" r="0.69" fill="#56e66e" opacity="0.26"/><circle cx="223.99" cy="282.50" r="1.35" fill="#6ae7c1" opacity="0.41"/><circle cx="372.21" cy="328.28" r="0.68" fill="#56e66e" opacity="0.33"/><circle cx="152.67" cy="304.62" r="0.78" fill="#56e66e" opacity="0.47"/><circle cx="123.04" cy="449.79" r="1.27" fill="#6ae7c1" opacity="0.70"/><circle cx="80.18" cy="424.78" r="0.80" fill="#56e66e" opacity="0.61"/><circle cx="414.48" cy="303.39" r="0.95" fill="#56e66e" opacity="0.42"/><circle cx="137.44" cy="474.75" r="1.01" fill="#6ae7c1" opacity="0.46"/><circle cx="298.60" cy="255.94" r="0.96" fill="#56e66e" opacity="0.50"/><circle cx="305.17" cy="364.90" r="0.96" fill="#56e66e" opacity="0.57"/><circle cx="308.88" cy="247.19" r="1.48" fill="#6ae7c1" opacity="0.79"/><circle cx="108.74" cy="270.98" r="1.00" fill="#56e66e" opacity="0.39"/><circle cx="364.06" cy="255.07" r="1.63" fill="#56e66e" opacity="0.59"/><circle cx="266.51" cy="260.73" r="1.10" fill="#6ae7c1" opacity="0.76"/><circle cx="293.70" cy="334.46" r="0.70" fill="#56e66e" opacity="0.50"/><circle cx="407.54" cy="396.28" r="1.13" fill="#56e66e" opacity="0.55"/><circle cx="240.98" cy="499.75" r="1.47" fill="#6ae7c1" opacity="0.65"/><circle cx="207.37" cy="494.96" r="0.79" fill="#56e66e" opacity="0.37"/><circle cx="363.24" cy="278.68" r="1.64" fill="#56e66e" opacity="0.66"/><circle cx="216.89" cy="424.81" r="1.28" fill="#6ae7c1" opacity="0.32"/><circle cx="412.35" cy="410.22" r="1.65" fill="#56e66e" opacity="0.57"/><circle cx="257.22" cy="222.10" r="0.92" fill="#56e66e" opacity="0.49"/><circle cx="288.48" cy="380.41" r="1.45" fill="#6ae7c1" opacity="0.65"/><circle cx="142.75" cy="369.22" r="1.28" fill="#56e66e" opacity="0.29"/><circle cx="275.44" cy="302.46" r="1.56" fill="#56e66e" opacity="0.65"/><circle cx="61.05" cy="356.33" r="1.57" fill="#6ae7c1" opacity="0.22"/><circle cx="106.28" cy="271.10" r="0.98" fill="#56e66e" opacity="0.67"/><circle cx="374.19" cy="256.14" r="1.64" fill="#56e66e" opacity="0.50"/><circle cx="355.86" cy="392.47" r="0.89" fill="#6ae7c1" opacity="0.64"/><circle cx="109.47" cy="453.48" r="1.58" fill="#56e66e" opacity="0.30"/><circle cx="172.50" cy="407.36" r="0.82" fill="#56e66e" opacity="0.21"/><circle cx="202.85" cy="443.52" r="0.94" fill="#6ae7c1" opacity="0.65"/><circle cx="326.39" cy="288.09" r="0.91" fill="#56e66e" opacity="0.61"/><circle cx="300.55" cy="492.51" r="1.35" fill="#56e66e" opacity="0.68"/><circle cx="60.05" cy="362.32" r="1.22" fill="#6ae7c1" opacity="0.74"/><circle cx="305.64" cy="485.96" r="0.99" fill="#56e66e" opacity="0.72"/><circle cx="306.00" cy="234.94" r="0.61" fill="#56e66e" opacity="0.77"/><circle cx="187.98" cy="356.10" r="0.68" fill="#6ae7c1" opacity="0.60"/><circle cx="122.06" cy="436.41" r="1.07" fill="#56e66e" opacity="0.60"/><circle cx="383.28" cy="429.93" r="1.26" fill="#56e66e" opacity="0.79"/><circle cx="188.48" cy="386.32" r="1.24" fill="#6ae7c1" opacity="0.67"/><circle cx="77.24" cy="405.54" r="1.29" fill="#56e66e" opacity="0.78"/><circle cx="316.44" cy="263.10" r="1.20" fill="#56e66e" opacity="0.65"/><circle cx="198.94" cy="398.66" r="0.70" fill="#6ae7c1" opacity="0.66"/><circle cx="162.60" cy="479.37" r="1.33" fill="#56e66e" opacity="0.73"/><circle cx="273.00" cy="245.35" r="1.17" fill="#56e66e" opacity="0.67"/><circle cx="99.62" cy="302.10" r="1.14" fill="#6ae7c1" opacity="0.22"/><circle cx="64.41" cy="356.09" r="1.69" fill="#56e66e" opacity="0.57"/><circle cx="162.53" cy="326.92" r="1.26" fill="#56e66e" opacity="0.27"/><circle cx="193.05" cy="247.88" r="0.68" fill="#6ae7c1" opacity="0.71"/><circle cx="386.74" cy="313.74" r="0.99" fill="#56e66e" opacity="0.53"/><circle cx="406.91" cy="373.17" r="0.66" fill="#56e66e" opacity="0.60"/><circle cx="303.04" cy="238.72" r="1.67" fill="#6ae7c1" opacity="0.70"/><circle cx="148.81" cy="425.67" r="1.36" fill="#56e66e" opacity="0.25"/><circle cx="83.17" cy="295.08" r="0.69" fill="#56e66e" opacity="0.40"/><circle cx="388.90" cy="341.61" r="0.75" fill="#6ae7c1" opacity="0.26"/><circle cx="244.62" cy="415.13" r="1.42" fill="#56e66e" opacity="0.49"/><circle cx="230.04" cy="247.23" r="1.63" fill="#56e66e" opacity="0.66"/><circle cx="287.03" cy="468.02" r="1.15" fill="#6ae7c1" opacity="0.52"/><circle cx="75.99" cy="414.31" r="0.91" fill="#56e66e" opacity="0.41"/><circle cx="154.51" cy="242.31" r="1.69" fill="#56e66e" opacity="0.75"/><circle cx="183.83" cy="289.02" r="1.06" fill="#6ae7c1" opacity="0.53"/><circle cx="432.71" cy="334.98" r="1.00" fill="#56e66e" opacity="0.57"/><circle cx="208.18" cy="363.56" r="0.82" fill="#56e66e" opacity="0.26"/><circle cx="291.77" cy="244.42" r="0.95" fill="#6ae7c1" opacity="0.36"/><circle cx="177.49" cy="369.71" r="1.30" fill="#56e66e" opacity="0.24"/><circle cx="193.28" cy="493.03" r="0.70" fill="#56e66e" opacity="0.22"/><circle cx="335.81" cy="291.07" r="0.67" fill="#6ae7c1" opacity="0.25"/><circle cx="289.16" cy="416.04" r="0.97" fill="#56e66e" opacity="0.50"/><circle cx="262.87" cy="225.26" r="0.84" fill="#56e66e" opacity="0.32"/><circle cx="299.42" cy="497.03" r="1.20" fill="#6ae7c1" opacity="0.71"/><circle cx="418.99" cy="390.68" r="0.84" fill="#56e66e" opacity="0.49"/><circle cx="423.44" cy="310.51" r="1.10" fill="#56e66e" opacity="0.50"/><circle cx="211.08" cy="435.36" r="1.06" fill="#6ae7c1" opacity="0.24"/><circle cx="134.25" cy="255.66" r="1.00" fill="#56e66e" opacity="0.39"/><circle cx="88.69" cy="427.94" r="0.96" fill="#56e66e" opacity="0.63"/><circle cx="219.82" cy="287.52" r="1.03" fill="#6ae7c1" opacity="0.67"/><circle cx="197.49" cy="370.02" r="0.93" fill="#56e66e" opacity="0.77"/><circle cx="263.42" cy="500.40" r="0.88" fill="#56e66e" opacity="0.26"/><circle cx="77.75" cy="413.66" r="1.09" fill="#6ae7c1" opacity="0.66"/><circle cx="216.58" cy="493.76" r="1.63" fill="#56e66e" opacity="0.69"/><circle cx="115.38" cy="272.34" r="0.60" fill="#56e66e" opacity="0.21"/><circle cx="78.08" cy="338.95" r="0.65" fill="#6ae7c1" opacity="0.33"/><circle cx="126.58" cy="263.80" r="0.90" fill="#56e66e" opacity="0.61"/><circle cx="133.74" cy="314.88" r="0.92" fill="#56e66e" opacity="0.45"/><circle cx="276.02" cy="288.28" r="0.76" fill="#6ae7c1" opacity="0.24"/><circle cx="160.70" cy="420.16" r="1.53" fill="#56e66e" opacity="0.73"/><circle cx="258.99" cy="434.96" r="1.40" fill="#56e66e" opacity="0.40"/><circle cx="94.29" cy="308.42" r="1.08" fill="#6ae7c1" opacity="0.31"/><circle cx="335.97" cy="271.42" r="1.60" fill="#56e66e" opacity="0.74"/><circle cx="127.57" cy="391.74" r="1.52" fill="#56e66e" opacity="0.45"/><circle cx="439.33" cy="368.53" r="1.01" fill="#6ae7c1" opacity="0.24"/><circle cx="433.87" cy="326.77" r="1.64" fill="#56e66e" opacity="0.59"/><circle cx="233.46" cy="335.23" r="1.27" fill="#56e66e" opacity="0.65"/><circle cx="408.58" cy="285.17" r="0.89" fill="#6ae7c1" opacity="0.68"/><circle cx="150.46" cy="277.84" r="1.57" fill="#56e66e" opacity="0.73"/><circle cx="286.95" cy="316.07" r="1.37" fill="#56e66e" opacity="0.24"/><circle cx="334.78" cy="304.03" r="1.27" fill="#6ae7c1" opacity="0.35"/><circle cx="272.62" cy="336.45" r="1.30" fill="#56e66e" opacity="0.44"/><circle cx="255.61" cy="275.62" r="0.67" fill="#56e66e" opacity="0.41"/><circle cx="309.88" cy="395.20" r="1.00" fill="#6ae7c1" opacity="0.48"/><circle cx="146.60" cy="306.17" r="1.15" fill="#56e66e" opacity="0.44"/><circle cx="365.70" cy="472.14" r="0.92" fill="#56e66e" opacity="0.64"/><circle cx="127.03" cy="387.24" r="1.06" fill="#6ae7c1" opacity="0.69"/><circle cx="265.50" cy="495.97" r="0.83" fill="#56e66e" opacity="0.40"/><circle cx="338.57" cy="484.90" r="0.84" fill="#56e66e" opacity="0.49"/><circle cx="72.97" cy="311.22" r="1.02" fill="#6ae7c1" opacity="0.30"/><circle cx="256.74" cy="302.84" r="0.66" fill="#56e66e" opacity="0.59"/><circle cx="156.64" cy="324.73" r="1.25" fill="#56e66e" opacity="0.34"/><circle cx="151.42" cy="280.37" r="0.61" fill="#6ae7c1" opacity="0.32"/><circle cx="369.51" cy="398.99" r="1.33" fill="#56e66e" opacity="0.65"/><circle cx="361.72" cy="331.05" r="0.86" fill="#56e66e" opacity="0.21"/><circle cx="102.63" cy="295.67" r="1.57" fill="#6ae7c1" opacity="0.40"/><circle cx="396.06" cy="352.81" r="1.08" fill="#56e66e" opacity="0.36"/><circle cx="90.58" cy="308.08" r="0.82" fill="#56e66e" opacity="0.59"/><circle cx="67.93" cy="335.48" r="1.66" fill="#6ae7c1" opacity="0.48"/><circle cx="303.78" cy="328.53" r="1.55" fill="#56e66e" opacity="0.45"/><circle cx="187.72" cy="428.28" r="0.70" fill="#56e66e" opacity="0.21"/><circle cx="360.26" cy="412.32" r="0.86" fill="#6ae7c1" opacity="0.34"/><circle cx="95.36" cy="280.66" r="1.63" fill="#56e66e" opacity="0.38"/><circle cx="238.30" cy="226.22" r="1.41" fill="#56e66e" opacity="0.71"/><circle cx="72.61" cy="400.32" r="1.53" fill="#6ae7c1" opacity="0.54"/><circle cx="234.90" cy="356.17" r="1.65" fill="#56e66e" opacity="0.27"/><circle cx="368.59" cy="395.91" r="1.63" fill="#56e66e" opacity="0.50"/><circle cx="259.96" cy="384.05" r="1.52" fill="#6ae7c1" opacity="0.64"/><circle cx="301.36" cy="496.68" r="0.86" fill="#56e66e" opacity="0.42"/><circle cx="173.93" cy="487.14" r="1.61" fill="#56e66e" opacity="0.48"/><circle cx="305.84" cy="273.76" r="0.86" fill="#6ae7c1" opacity="0.39"/><circle cx="169.45" cy="270.04" r="1.23" fill="#56e66e" opacity="0.79"/><circle cx="229.56" cy="288.70" r="1.29" fill="#56e66e" opacity="0.42"/><circle cx="215.13" cy="386.09" r="1.15" fill="#6ae7c1" opacity="0.32"/><circle cx="288.86" cy="352.19" r="0.66" fill="#56e66e" opacity="0.56"/><circle cx="243.66" cy="501.43" r="1.59" fill="#56e66e" opacity="0.22"/><circle cx="340.12" cy="395.21" r="0.94" fill="#6ae7c1" opacity="0.46"/><circle cx="254.81" cy="339.43" r="0.83" fill="#56e66e" opacity="0.22"/><circle cx="303.52" cy="487.49" r="1.35" fill="#56e66e" opacity="0.33"/><circle cx="197.20" cy="419.34" r="0.71" fill="#6ae7c1" opacity="0.32"/><circle cx="253.11" cy="407.78" r="0.86" fill="#56e66e" opacity="0.33"/><circle cx="367.39" cy="471.76" r="1.48" fill="#56e66e" opacity="0.34"/><circle cx="239.97" cy="494.67" r="1.11" fill="#6ae7c1" opacity="0.74"/><circle cx="196.47" cy="255.15" r="0.73" fill="#56e66e" opacity="0.58"/><circle cx="227.89" cy="336.56" r="1.22" fill="#56e66e" opacity="0.67"/><circle cx="200.51" cy="255.21" r="1.26" fill="#6ae7c1" opacity="0.36"/><circle cx="427.41" cy="312.26" r="0.88" fill="#56e66e" opacity="0.29"/><circle cx="127.66" cy="382.87" r="1.59" fill="#56e66e" opacity="0.72"/><circle cx="426.54" cy="347.01" r="0.84" fill="#6ae7c1" opacity="0.35"/><circle cx="409.68" cy="288.47" r="1.19" fill="#56e66e" opacity="0.77"/><circle cx="341.41" cy="483.99" r="0.90" fill="#56e66e" opacity="0.33"/><circle cx="71.92" cy="315.20" r="0.69" fill="#6ae7c1" opacity="0.80"/><circle cx="319.47" cy="270.01" r="0.69" fill="#56e66e" opacity="0.21"/><circle cx="102.55" cy="443.90" r="0.63" fill="#56e66e" opacity="0.42"/><circle cx="217.19" cy="294.58" r="0.67" fill="#6ae7c1" opacity="0.26"/><circle cx="215.19" cy="470.37" r="0.98" fill="#56e66e" opacity="0.31"/><circle cx="97.49" cy="442.24" r="0.82" fill="#56e66e" opacity="0.41"/><circle cx="302.59" cy="401.20" r="0.74" fill="#6ae7c1" opacity="0.49"/><circle cx="222.99" cy="463.08" r="1.17" fill="#56e66e" opacity="0.21"/><circle cx="239.76" cy="418.19" r="1.45" fill="#56e66e" opacity="0.49"/><circle cx="383.81" cy="263.27" r="0.70" fill="#6ae7c1" opacity="0.70"/><circle cx="279.15" cy="267.44" r="1.21" fill="#56e66e" opacity="0.57"/><circle cx="423.78" cy="360.29" r="1.15" fill="#56e66e" opacity="0.48"/><circle cx="329.19" cy="301.27" r="1.05" fill="#6ae7c1" opacity="0.72"/><circle cx="77.08" cy="312.05" r="1.23" fill="#56e66e" opacity="0.74"/><circle cx="69.03" cy="351.68" r="1.23" fill="#56e66e" opacity="0.30"/><circle cx="428.20" cy="316.25" r="1.68" fill="#6ae7c1" opacity="0.38"/><circle cx="77.50" cy="364.86" r="0.86" fill="#56e66e" opacity="0.39"/><circle cx="178.19" cy="489.42" r="0.93" fill="#56e66e" opacity="0.21"/><circle cx="388.03" cy="275.98" r="0.72" fill="#6ae7c1" opacity="0.22"/><circle cx="117.86" cy="462.60" r="1.52" fill="#56e66e" opacity="0.73"/><circle cx="245.49" cy="228.41" r="1.23" fill="#56e66e" opacity="0.62"/><circle cx="294.71" cy="400.98" r="1.12" fill="#6ae7c1" opacity="0.44"/><circle cx="318.95" cy="406.34" r="1.18" fill="#56e66e" opacity="0.75"/><circle cx="334.26" cy="267.62" r="1.55" fill="#56e66e" opacity="0.31"/><circle cx="334.01" cy="248.42" r="0.72" fill="#6ae7c1" opacity="0.58"/><circle cx="140.02" cy="249.77" r="1.04" fill="#56e66e" opacity="0.54"/><circle cx="93.50" cy="322.69" r="0.79" fill="#56e66e" opacity="0.60"/><circle cx="337.70" cy="307.42" r="1.00" fill="#6ae7c1" opacity="0.73"/><circle cx="92.92" cy="287.78" r="0.89" fill="#56e66e" opacity="0.75"/><circle cx="250.55" cy="483.44" r="0.72" fill="#56e66e" opacity="0.51"/><circle cx="358.51" cy="261.94" r="0.77" fill="#6ae7c1" opacity="0.41"/><circle cx="186.58" cy="493.97" r="1.51" fill="#56e66e" opacity="0.70"/><circle cx="159.52" cy="448.41" r="1.11" fill="#56e66e" opacity="0.29"/><circle cx="247.22" cy="495.59" r="1.16" fill="#6ae7c1" opacity="0.34"/><circle cx="151.44" cy="254.54" r="1.41" fill="#56e66e" opacity="0.56"/><circle cx="258.07" cy="223.88" r="1.62" fill="#56e66e" opacity="0.61"/><circle cx="111.00" cy="457.27" r="1.52" fill="#6ae7c1" opacity="0.62"/><circle cx="401.85" cy="329.07" r="1.65" fill="#56e66e" opacity="0.38"/><circle cx="155.30" cy="263.89" r="1.16" fill="#56e66e" opacity="0.75"/><circle cx="275.39" cy="267.61" r="0.63" fill="#6ae7c1" opacity="0.53"/><circle cx="142.45" cy="307.96" r="0.83" fill="#56e66e" opacity="0.69"/><circle cx="248.23" cy="223.08" r="1.03" fill="#56e66e" opacity="0.67"/><circle cx="363.83" cy="415.20" r="1.67" fill="#6ae7c1" opacity="0.37"/><circle cx="397.79" cy="274.06" r="1.58" fill="#56e66e" opacity="0.52"/><circle cx="340.26" cy="422.18" r="1.01" fill="#56e66e" opacity="0.40"/><circle cx="148.25" cy="263.65" r="1.23" fill="#6ae7c1" opacity="0.67"/><circle cx="199.65" cy="466.82" r="0.70" fill="#56e66e" opacity="0.49"/><circle cx="197.37" cy="449.95" r="0.78" fill="#56e66e" opacity="0.38"/><circle cx="347.81" cy="258.91" r="1.32" fill="#6ae7c1" opacity="0.79"/><circle cx="430.55" cy="321.61" r="1.12" fill="#56e66e" opacity="0.62"/><circle cx="341.63" cy="457.22" r="1.67" fill="#56e66e" opacity="0.66"/><circle cx="276.46" cy="264.03" r="1.00" fill="#6ae7c1" opacity="0.64"/><circle cx="187.36" cy="461.50" r="0.93" fill="#56e66e" opacity="0.34"/><circle cx="218.84" cy="459.82" r="0.92" fill="#56e66e" opacity="0.53"/><circle cx="62.63" cy="362.99" r="1.00" fill="#6ae7c1" opacity="0.78"/><circle cx="68.87" cy="320.82" r="1.61" fill="#56e66e" opacity="0.53"/><circle cx="145.00" cy="314.85" r="0.72" fill="#56e66e" opacity="0.58"/><circle cx="327.59" cy="261.62" r="0.94" fill="#6ae7c1" opacity="0.28"/><circle cx="172.86" cy="289.84" r="1.03" fill="#56e66e" opacity="0.27"/><circle cx="224.32" cy="385.64" r="1.30" fill="#56e66e" opacity="0.78"/><circle cx="254.23" cy="242.90" r="1.56" fill="#6ae7c1" opacity="0.46"/><circle cx="358.60" cy="476.38" r="1.12" fill="#56e66e" opacity="0.67"/><circle cx="289.59" cy="427.61" r="0.85" fill="#56e66e" opacity="0.21"/><circle cx="94.77" cy="442.44" r="0.80" fill="#6ae7c1" opacity="0.42"/><circle cx="262.46" cy="224.99" r="1.18" fill="#56e66e" opacity="0.68"/><circle cx="214.09" cy="318.87" r="0.90" fill="#56e66e" opacity="0.45"/><circle cx="105.78" cy="277.14" r="1.44" fill="#6ae7c1" opacity="0.62"/><circle cx="413.38" cy="377.40" r="1.35" fill="#56e66e" opacity="0.52"/><circle cx="292.46" cy="461.25" r="1.67" fill="#56e66e" opacity="0.34"/><circle cx="174.43" cy="452.44" r="0.97" fill="#6ae7c1" opacity="0.41"/><circle cx="375.64" cy="447.62" r="0.95" fill="#56e66e" opacity="0.53"/><circle cx="425.85" cy="338.96" r="1.11" fill="#56e66e" opacity="0.62"/><circle cx="77.18" cy="419.18" r="0.86" fill="#6ae7c1" opacity="0.37"/><circle cx="175.41" cy="234.05" r="1.48" fill="#56e66e" opacity="0.60"/><circle cx="90.94" cy="432.44" r="1.44" fill="#56e66e" opacity="0.29"/><circle cx="232.61" cy="239.95" r="1.65" fill="#6ae7c1" opacity="0.61"/><circle cx="285.70" cy="459.55" r="0.92" fill="#56e66e" opacity="0.22"/><circle cx="280.57" cy="493.57" r="1.47" fill="#56e66e" opacity="0.60"/><circle cx="224.44" cy="410.02" r="1.33" fill="#6ae7c1" opacity="0.73"/><circle cx="412.91" cy="419.42" r="1.18" fill="#56e66e" opacity="0.54"/><circle cx="259.60" cy="450.50" r="0.73" fill="#56e66e" opacity="0.41"/><circle cx="189.88" cy="384.65" r="1.03" fill="#6ae7c1" opacity="0.28"/><circle cx="303.86" cy="231.20" r="1.66" fill="#56e66e" opacity="0.42"/><circle cx="84.17" cy="345.63" r="1.63" fill="#56e66e" opacity="0.30"/><circle cx="332.48" cy="309.46" r="1.30" fill="#6ae7c1" opacity="0.60"/><circle cx="299.04" cy="234.55" r="1.03" fill="#56e66e" opacity="0.80"/><circle cx="361.54" cy="249.68" r="1.27" fill="#56e66e" opacity="0.59"/><circle cx="283.55" cy="280.85" r="1.12" fill="#6ae7c1" opacity="0.23"/><circle cx="107.77" cy="323.98" r="1.49" fill="#56e66e" opacity="0.26"/><circle cx="255.95" cy="459.98" r="1.00" fill="#56e66e" opacity="0.74"/><circle cx="352.21" cy="259.86" r="1.53" fill="#6ae7c1" opacity="0.66"/><circle cx="83.00" cy="325.14" r="1.14" fill="#56e66e" opacity="0.70"/><circle cx="209.35" cy="394.26" r="1.49" fill="#56e66e" opacity="0.76"/><circle cx="222.04" cy="346.50" r="0.76" fill="#6ae7c1" opacity="0.70"/><circle cx="118.58" cy="269.80" r="1.15" fill="#56e66e" opacity="0.69"/><circle cx="206.93" cy="393.74" r="0.75" fill="#56e66e" opacity="0.66"/><circle cx="376.91" cy="258.01" r="1.31" fill="#6ae7c1" opacity="0.50"/><circle cx="184.48" cy="493.34" r="1.70" fill="#56e66e" opacity="0.44"/><circle cx="234.68" cy="255.08" r="1.21" fill="#56e66e" opacity="0.53"/><circle cx="80.93" cy="348.56" r="0.69" fill="#6ae7c1" opacity="0.71"/><circle cx="345.04" cy="255.00" r="0.68" fill="#56e66e" opacity="0.78"/><circle cx="289.29" cy="295.22" r="1.51" fill="#56e66e" opacity="0.26"/><circle cx="296.91" cy="300.78" r="1.21" fill="#6ae7c1" opacity="0.72"/><circle cx="190.29" cy="231.01" r="1.65" fill="#56e66e" opacity="0.46"/><circle cx="246.37" cy="229.68" r="1.44" fill="#56e66e" opacity="0.34"/><circle cx="130.96" cy="352.03" r="1.09" fill="#6ae7c1" opacity="0.21"/><circle cx="248.03" cy="417.40" r="0.86" fill="#56e66e" opacity="0.79"/><circle cx="241.97" cy="491.05" r="1.12" fill="#56e66e" opacity="0.40"/><circle cx="145.46" cy="346.88" r="1.67" fill="#6ae7c1" opacity="0.55"/><circle cx="384.89" cy="405.88" r="0.85" fill="#56e66e" opacity="0.29"/><circle cx="374.33" cy="467.44" r="1.19" fill="#56e66e" opacity="0.62"/><circle cx="172.43" cy="268.39" r="1.58" fill="#6ae7c1" opacity="0.36"/><circle cx="315.11" cy="233.64" r="1.47" fill="#56e66e" opacity="0.28"/><circle cx="258.03" cy="501.82" r="1.58" fill="#56e66e" opacity="0.46"/><circle cx="151.57" cy="242.45" r="1.33" fill="#6ae7c1" opacity="0.24"/><circle cx="109.80" cy="441.00" r="0.62" fill="#56e66e" opacity="0.33"/><circle cx="170.57" cy="390.25" r="1.66" fill="#56e66e" opacity="0.80"/><circle cx="433.13" cy="325.82" r="0.82" fill="#6ae7c1" opacity="0.78"/><circle cx="63.03" cy="374.27" r="1.48" fill="#56e66e" opacity="0.25"/><circle cx="111.56" cy="270.50" r="1.51" fill="#56e66e" opacity="0.69"/><circle cx="159.99" cy="286.97" r="1.21" fill="#6ae7c1" opacity="0.71"/><circle cx="87.03" cy="427.03" r="1.02" fill="#56e66e" opacity="0.22"/><circle cx="221.87" cy="419.59" r="1.17" fill="#56e66e" opacity="0.55"/><circle cx="256.74" cy="383.56" r="1.39" fill="#6ae7c1" opacity="0.53"/><circle cx="152.43" cy="360.46" r="1.30" fill="#56e66e" opacity="0.70"/><circle cx="259.57" cy="223.54" r="1.43" fill="#56e66e" opacity="0.57"/><circle cx="88.30" cy="418.87" r="0.82" fill="#6ae7c1" opacity="0.65"/><circle cx="330.32" cy="487.87" r="0.69" fill="#56e66e" opacity="0.22"/><circle cx="247.96" cy="481.05" r="1.29" fill="#56e66e" opacity="0.31"/><circle cx="224.59" cy="392.84" r="0.77" fill="#6ae7c1" opacity="0.55"/><circle cx="143.16" cy="430.57" r="0.98" fill="#56e66e" opacity="0.30"/><circle cx="66.43" cy="397.56" r="1.43" fill="#56e66e" opacity="0.48"/><circle cx="305.70" cy="231.19" r="1.45" fill="#6ae7c1" opacity="0.80"/><circle cx="109.37" cy="455.48" r="1.43" fill="#56e66e" opacity="0.61"/><circle cx="184.32" cy="378.92" r="1.45" fill="#56e66e" opacity="0.56"/><circle cx="92.37" cy="425.48" r="1.47" fill="#6ae7c1" opacity="0.42"/><circle cx="335.64" cy="472.56" r="0.87" fill="#56e66e" opacity="0.78"/><circle cx="315.63" cy="401.98" r="0.61" fill="#56e66e" opacity="0.37"/><circle cx="85.29" cy="305.59" r="0.72" fill="#6ae7c1" opacity="0.75"/><circle cx="121.67" cy="262.28" r="0.66" fill="#56e66e" opacity="0.79"/><circle cx="194.17" cy="340.50" r="1.12" fill="#56e66e" opacity="0.55"/><circle cx="323.67" cy="457.46" r="1.16" fill="#6ae7c1" opacity="0.22"/><circle cx="170.02" cy="285.45" r="1.60" fill="#56e66e" opacity="0.70"/><circle cx="321.89" cy="423.05" r="1.52" fill="#56e66e" opacity="0.61"/><circle cx="137.52" cy="470.00" r="0.61" fill="#6ae7c1" opacity="0.73"/><circle cx="267.01" cy="226.10" r="1.57" fill="#56e66e" opacity="0.54"/><circle cx="224.11" cy="344.64" r="1.32" fill="#56e66e" opacity="0.71"/><circle cx="281.16" cy="409.39" r="0.82" fill="#6ae7c1" opacity="0.29"/><circle cx="418.96" cy="361.33" r="0.83" fill="#56e66e" opacity="0.21"/><circle cx="380.34" cy="260.15" r="1.56" fill="#56e66e" opacity="0.67"/><circle cx="398.06" cy="448.87" r="0.83" fill="#6ae7c1" opacity="0.31"/><circle cx="374.43" cy="331.07" r="1.06" fill="#56e66e" opacity="0.41"/><circle cx="363.75" cy="278.79" r="0.87" fill="#56e66e" opacity="0.79"/><text x="28" y="50" fill="#95b9ac" font-size="13" text-anchor="start" font-weight="400">PROJECT / OPEN SOURCE</text><text x="28" y="117" font-size="46.0" fill="url(#brand)" font-weight="700">tokenctl</text><text x="28" y="163.0" fill="#f1fdee" font-size="21" text-anchor="start" font-weight="400">Put model traffic under</text><text x="28" y="192.4" fill="#f1fdee" font-size="21" text-anchor="start" font-weight="400">explicit budgets.</text><path d="M126.5 418.0L204.4 341.0L278.5 369.0L360.2 292.0" fill="none" stroke="#56e66e" stroke-width="1.5" marker-end="url(#arrow)"/><path d="M126.5 418.0L204.4 341.0L278.5 369.0L360.2 292.0" class="flow" fill="none" stroke="#bbf6ac" stroke-width="2"/><circle cx="126.5" cy="418.0" r="12" fill="#bbf6ac" opacity=".5" filter="url(#glow)"/><circle class="pulse" cx="126.5" cy="418.0" r="3" fill="#bbf6ac"/><circle cx="204.4" cy="341.0" r="12" fill="#bbf6ac" opacity=".5" filter="url(#glow)"/><circle class="pulse" cx="204.4" cy="341.0" r="3" fill="#bbf6ac"/><circle cx="278.5" cy="369.0" r="12" fill="#bbf6ac" opacity=".5" filter="url(#glow)"/><circle class="pulse" cx="278.5" cy="369.0" r="3" fill="#bbf6ac"/><circle cx="360.2" cy="292.0" r="12" fill="#bbf6ac" opacity=".5" filter="url(#glow)"/><circle class="pulse" cx="360.2" cy="292.0" r="3" fill="#bbf6ac"/></svg>
